<svg width="472" height="740" viewBox="0 0 472 740" fill="none" xmlns="http://www.w3.org/2000/svg">
<g clip-path="url(#clip0)">
<path d="M366.3 422.04C398.32 467.72 351.03 531.34 355.31 585.84C356.67 603.13 358.76 620.36 360.12 637.65C361.09 650.07 361.65 694.28 361.43 706.74C335.11 704.91 330.07 702.41 304.62 706.53C294.09 708.24 270.14 707.25 269.5 706.74C268.33 705.81 280.49 644.49 282.6 633.72C292.69 582.09 273.1 568.28 293.47 481.08C245.31 584.22 257.82 652.18 239.08 707.5C210.11 699.18 196.64 710.31 166.63 707.5C166.63 672.52 174.14 593.59 189.22 554.12C192.2 546.33 206.83 514.97 209.59 507.1C219.33 479.32 224.19 478.86 231.89 453.97C236.01 440.65 244.21 412.15 249.99 400.27" fill="#991915"/>
<path d="M359.1 402.41C362.04 406.69 364.99 410.96 367.93 415.24C368.51 416.08 369.17 416.98 370.16 417.22C371.18 417.47 372.2 416.94 373.11 416.42C399.05 401.74 424.13 385.54 448.18 367.93C451.2 365.72 454.36 363.27 455.55 359.73C456.31 357.45 456.16 354.96 455.72 352.6C453.17 339.08 442 329.11 431.49 320.23C410 302.07 388.5 283.91 367.01 265.75L366.84 267.74C369.98 258.52 371.54 248.76 371.44 239.02L370.99 239.46C359.39 249 340.57 248.09 329.94 237.48C329.41 246.78 328.58 256.07 327.44 265.32C317.54 264.4 307.11 263.56 298.08 267.71C288.72 272 277.61 276.42 267.92 279.9C253.02 285.26 217.28 272.01 205.4 261.55C173.42 233.38 188.27 243.65 154.8 217.27C149.86 220.66 148.31 221.07 140.61 225.58C139.93 225.98 136.82 227.6 134.73 228.69C133.71 229.23 124.78 233.49 126.42 235.27C144.68 254.95 152.37 263.99 170.96 281.64C195.91 305.34 233.67 311.52 268.07 312.46C270.03 312.51 272.19 312.61 273.61 313.97C275.58 315.87 275.06 319.09 274.39 321.74C269.02 343.02 253.39 382.05 248.03 403.33C284.59 410.31 329.23 417.22 366.13 422.08C367.23 394.45 370.7 348.08 371.8 320.45C381.24 330.74 390.68 341.04 400.12 351.33C401.59 352.93 403.17 355.1 402.27 357.08C401.89 357.92 401.13 358.51 400.4 359.07C390.39 366.72 380.39 374.36 370.38 382.01" fill="#E4B9D8"/>
<path d="M435.02 91.9C433.59 116.26 420.62 169.76 406.89 189.93C399.19 201.24 391.14 212.31 382.75 223.11C376.06 231.72 367.95 240.84 357.09 241.78C348.99 242.48 341.34 238.4 334.24 234.44C331.49 232.91 328.67 231.31 326.67 228.88C324.75 226.54 323.74 223.6 322.78 220.72C312.18 188.97 302.86 156.8 294.86 124.3C292.19 113.45 291.82 85.83 292.85 74.7" fill="#E4B9D8"/>
<path d="M361.13 134.95C361.38 137.76 361.64 140.56 361.89 143.37C362.02 144.75 362.34 146.24 361.71 147.53C361.16 148.66 360.49 149.7 360.05 150.88C358.29 155.63 358.7 160.76 359.13 165.7C359.27 167.3 362.67 166.47 362.53 164.79C362.1 159.82 361.67 154.37 363.98 149.77C364.49 148.75 365.17 147.81 365.43 146.68C365.71 145.41 365.43 143.98 365.31 142.7C365.05 139.81 364.79 136.93 364.52 134.04C364.38 132.44 360.98 133.27 361.13 134.95Z" fill="#991915"/>
<path d="M368.32 166.86C368.08 169.06 369.35 170.84 370.03 172.83C370.06 172.91 370.17 173.43 370.22 173.45C370.24 173.46 370.73 173.09 370.45 173.25C370.44 173.26 370.78 173.11 370.62 173.17C370.56 173.19 370.5 173.22 370.44 173.24C370.05 173.39 370.76 173.16 370.47 173.23C370.38 173.25 370.27 173.27 370.19 173.3C370.18 173.31 370.6 173.24 370.41 173.25C370.36 173.25 370.31 173.27 370.27 173.27C370.22 173.28 370.17 173.28 370.13 173.29C369.93 173.33 370.51 173.27 370.22 173.28C370.12 173.28 370.03 173.29 369.93 173.29C369.88 173.29 369.83 173.29 369.79 173.29C369.63 173.29 369.92 173.3 369.92 173.3C369.7 173.26 369.47 173.25 369.25 173.21C369.15 173.19 368.97 173.15 369.18 173.2C369.09 173.18 368.99 173.15 368.9 173.12C368.68 173.05 368.47 172.97 368.27 172.88C368.15 172.83 368.04 172.77 367.92 172.71C367.92 172.71 367.78 172.63 367.86 172.68C367.93 172.72 367.78 172.63 367.76 172.62C367.56 172.49 367.36 172.34 367.18 172.19C366.81 171.87 366.5 171.5 366.24 171.1C366.1 170.89 365.53 170.87 365.34 170.87C364.91 170.87 364.41 170.98 364.01 171.15C363.54 171.35 362.68 171.77 363.07 172.37C364.26 174.23 366.56 175.09 368.7 175.03C369.41 175.01 370.13 174.91 370.82 174.72C371.59 174.51 372.42 174.21 373.05 173.71C373.4 173.44 373.64 173.09 373.62 172.64C373.6 172.36 373.49 172.07 373.39 171.81C373.18 171.22 372.92 170.66 372.67 170.09C372.15 168.94 371.56 167.67 371.71 166.38C371.79 165.68 370.74 165.72 370.28 165.79C369.84 165.86 369.38 165.98 368.99 166.21C368.76 166.35 368.35 166.58 368.32 166.86Z" fill="#991915"/>
<path d="M351.31 165.52C351.04 166.09 350.7 166.61 350.3 167.1C349.87 167.63 349.57 167.91 349.09 168.27C348.96 168.37 348.82 168.46 348.68 168.56C348.54 168.65 348.54 168.65 348.68 168.56C348.61 168.6 348.54 168.64 348.48 168.68C348.18 168.86 347.87 169.03 347.59 169.26C346.93 169.79 346.63 170.46 346.86 171.3C347.78 174.73 352.27 174.77 354.78 173.22C355.15 172.99 355.87 172.41 355.14 172.12C354.46 171.86 353.35 172.13 352.75 172.5C352.7 172.53 352.28 172.73 352.5 172.65C352.62 172.6 352.6 172.6 352.46 172.66C352.71 172.58 352.73 172.57 352.54 172.62C353.19 172.46 352.26 172.74 352.8 172.58C352.71 172.61 352.41 172.57 352.67 172.59C352.62 172.59 352.21 172.51 352.35 172.55C352.23 172.52 352.11 172.48 351.99 172.43C351.79 172.35 351.66 172.28 351.49 172.16C350.71 171.6 350.01 170.55 350.25 169.61C350.23 169.65 350.25 169.63 350.31 169.54C350.21 169.62 350.22 169.62 350.33 169.53C350.52 169.32 350.13 169.63 350.4 169.48C350.7 169.31 350.99 169.12 351.28 168.93C351.79 168.6 352.24 168.2 352.68 167.79C353.51 167 354.17 166.05 354.67 165.02C354.78 164.79 354.53 164.61 354.36 164.54C354.05 164.42 353.58 164.44 353.26 164.5C352.61 164.59 351.64 164.84 351.31 165.52Z" fill="#991915"/>
<path d="M296.04 142.45C293.36 138.04 290.76 118.13 290.05 116.94C289.75 116.44 289.29 116.07 288.84 115.71C287.31 114.48 285.76 113.23 283.98 112.39C282.66 111.76 281.03 111.38 279.79 112.14C279.34 112.42 278.98 112.82 278.67 113.25C277.11 115.46 276.99 118.6 278.38 120.93C279.59 122.96 281.72 124.25 283.19 126.1C285.36 128.83 285.89 132.49 286.09 135.98C286.33 140.05 286.23 144.13 286.13 148.21C288.07 148.99 290.35 148.44 292.06 147.24C293.77 146.04 295 144.26 296.04 142.45Z" fill="#E4B9D8"/>
<path d="M297.49 141.84C296.7 140.5 296.31 138.87 295.9 137.38C295.31 135.19 294.83 132.97 294.39 130.75C293.57 126.67 292.92 122.56 292.11 118.49C291.84 117.14 291.67 116.27 290.56 115.31C288.18 113.26 285.17 110.81 281.87 110.82C278.5 110.84 276.16 113.65 275.87 116.87C275.57 120.27 277.46 122.54 279.81 124.73C281.24 126.06 282.46 127.43 283.2 129.27C283.91 131.02 284.23 132.91 284.41 134.78C284.84 139.3 284.68 143.87 284.57 148.4C284.56 148.64 284.63 148.87 284.89 148.96C287.33 149.83 289.94 149.43 292.2 148.21C294.56 146.93 296.18 144.76 297.5 142.49C298.24 141.22 295.11 141.52 294.58 142.42C293.17 144.84 290.71 148.63 287.37 147.44C287.48 147.63 287.58 147.82 287.69 148C287.78 144.34 287.87 140.67 287.72 137.01C287.59 133.87 287.38 130.57 286 127.69C284.65 124.88 282.04 123.39 280.25 120.95C279.39 119.77 278.93 118.3 278.97 116.84C278.99 116.23 279.09 115.61 279.27 115.03C279.47 114.35 280 112.89 280.75 112.6C281.27 112.4 282.24 112.91 282.73 113.14C283.61 113.55 284.44 114.08 285.22 114.64C286.22 115.36 287.92 116.32 288.51 117.43C288.92 118.2 288.98 119.35 289.14 120.19C289.86 123.99 290.49 127.8 291.26 131.59C292.02 135.35 292.6 139.7 294.58 143.06C295.11 143.95 298.16 142.96 297.49 141.84Z" fill="#E4B9D8"/>
<path d="M421.3 167C422.99 164.22 431.09 144.73 431.65 143.26C432.21 141.79 433.84 140.6 435.33 141.09C436.09 141.34 436.67 141.95 437.09 142.62C439.17 145.88 438.1 150.22 436.41 153.7C434.72 157.18 432.44 160.57 432.22 164.43C432.07 167.04 432.89 169.76 432.06 172.24C431.21 174.79 428.53 176.6 425.84 176.43C423.18 176.27 420.83 173.15 421.3 167Z" fill="#E4B9D8"/>
<path d="M422.85 166.76C424.56 163.89 425.76 160.63 427.08 157.58C428.79 153.64 430.45 149.69 432.1 145.72C432.49 144.78 432.83 143.79 433.27 142.87C433.67 142.05 433.95 141.54 434.74 142.16C435.41 142.68 435.84 143.49 436.15 144.27C436.78 145.88 436.78 147.64 436.46 149.32C435.76 152.97 433.62 156.03 432.13 159.37C431.4 160.99 430.83 162.69 430.69 164.47C430.55 166.29 430.88 168.09 430.88 169.91C430.88 171.86 430.33 173.8 428.7 175.01C427.69 175.76 426.52 175.93 425.44 175.22C422.86 173.51 422.67 169.52 422.85 166.76C422.92 165.71 419.8 166.36 419.74 167.23C419.55 170.18 419.69 173.91 422.1 176.02C424.34 177.98 427.95 177.24 430.29 175.87C431.74 175.02 432.97 173.76 433.57 172.16C434.33 170.11 433.93 167.87 433.82 165.76C433.57 161.14 436.06 157.46 437.98 153.45C439.61 150.06 440.82 145.63 438.67 142.19C436.71 139.06 431.96 140 430.32 143.03C429.68 144.22 429.25 145.57 428.74 146.81C427.78 149.12 426.81 151.42 425.83 153.72C424.66 156.47 423.48 159.22 422.26 161.96C421.47 163.72 420.74 165.57 419.74 167.23C419.4 167.8 420.85 167.74 421.04 167.71C421.71 167.63 422.5 167.36 422.85 166.76Z" fill="#E4B9D8"/>
<path d="M369.29 130.2C369.91 129.08 370.66 128.03 371.52 127.08C371.74 126.83 371.98 126.59 372.28 126.43C373.07 126.01 374.02 126.31 374.88 126.52C379.28 127.6 383.96 126.15 388.42 126.92C389.88 127.17 391.29 127.66 392.76 127.83C394.94 128.07 397.12 127.59 399.3 127.32C402.48 126.93 405.72 127 408.88 127.52C409.87 127.68 410.87 127.9 411.78 128.32C412.59 128.7 413.31 129.23 414.03 129.75C416.49 131.56 418.96 133.37 421.42 135.17C421.88 135.51 422.36 135.86 422.66 136.35C420.07 137.9 417.2 139.01 414.22 139.5C412.14 139.85 410.02 139.9 407.92 139.95C402.28 140.08 396.64 140.22 391 140.35C387.46 140.43 383.9 140.52 380.37 140.23C378.34 140.07 376.29 139.77 374.43 138.95C372.57 138.13 370.89 136.73 370.11 134.85C369.48 133.34 369.46 131.66 369.54 130.02" fill="#991915"/>
<path d="M352.55 127.21C351.72 125.58 350.13 124.43 348.42 123.77C346.71 123.11 344.87 122.87 343.05 122.64C339.94 122.25 336.82 121.85 333.71 121.46C332.15 121.26 330.57 121.07 329.02 121.33C328.37 121.44 327.74 121.63 327.1 121.76C325.9 122 324.67 122 323.44 122C319.01 121.99 314.55 121.83 310.2 122.65C308.49 122.97 306.75 123.47 305.38 124.56C304.99 124.87 304.62 125.27 304.58 125.77C304.53 126.35 304.95 126.86 305.18 127.4C305.57 128.31 305.41 129.37 305.69 130.32C306.06 131.59 307.17 132.52 308.35 133.13C310.06 134.02 311.98 134.39 313.86 134.74C315.47 135.04 317.08 135.34 318.69 135.63C321.65 136.17 324.66 136.71 327.65 136.39C329.04 136.24 330.4 135.9 331.8 135.8C334.28 135.62 336.74 136.19 339.22 136.39C343.28 136.72 347.41 136.04 351.15 134.43C351.57 134.25 351.99 134.05 352.28 133.7C352.54 133.39 352.66 132.98 352.75 132.58C353.08 131.05 352.98 129.42 352.45 127.94" fill="#991915"/>
<path d="M432.11 21.01C422.02 22.79 413.09 16.32 404.47 11.93C398.97 9.12999 392.92 7.05999 386.89 4.99999C380.79 2.90999 374.58 0.799987 367.95 0.199987C360.01 -0.530013 352.04 0.949987 344.3 2.46999C329.73 5.33999 315.23 8.40999 300.82 11.7C295.77 12.85 290.5 14.13 286.87 17.05C284.36 19.07 282.87 21.69 281.42 24.25C278.61 29.24 275.81 34.23 273 39.22C272.34 40.4 271.63 41.62 270.36 42.45C268.54 43.63 265.97 43.78 263.73 44.4C257.19 46.22 253.96 52.94 257.39 57.57C258.43 58.97 259.93 60.14 261.04 61.51C266.12 67.79 265.87 82.65 267.58 89.91C269.03 96.05 284.51 108.3 292.32 110.08C300.13 111.86 295.81 96.45 301.4 91.91C303.22 90.43 304.74 88.67 307.01 87.61C313.03 84.8 320.5 88.11 326.73 90.63C341.13 96.48 358.28 98.26 374.2 95.56C375.32 100 377.78 105.43 383.65 105.88C390.63 106.42 394.95 99.22 401.93 98.69C408.77 98.17 413.05 103.93 417.12 108.17C421.66 112.91 421.06 129.91 428.25 131.96C432.65 133.22 446.14 119.76 447.25 116.27C447.67 114.96 447.09 113.59 447.08 112.24C447.04 105.86 458.12 103.48 463.03 98.33C469.04 92.01 464.58 83.15 466.07 75.42C467.53 67.85 474.82 60.18 470.56 53.26C468.7 50.23 464.96 48.18 462.09 45.65C457.05 41.2 454.77 35.34 450.98 30.21C447.2 25.08 440.69 20.26 433.01 20.68" fill="#991915"/>
<path d="M320.05 378.27C320.11 378.05 319.85 378.56 319.97 378.41C320.02 378.33 320 378.35 319.91 378.47C319.99 378.39 320.08 378.32 320.19 378.28C320.49 378.2 320.79 378.12 321.09 378.04C321.06 378.04 321.03 378.05 321 378.05C321.38 378.13 321.77 378.21 322.15 378.29C322.23 378.35 322.31 378.61 322.31 378.44C322.31 378.38 322.26 378.29 322.24 378.23C322.21 378.1 322.19 377.98 322.19 377.9C322.19 377.51 322.33 377.42 322.37 377.06C322.47 376.16 321.41 375.85 320.77 375.53C319.43 374.84 318.09 374.12 316.69 373.55C315.03 372.89 312.85 372.3 311.51 373.9C310.3 375.34 312.33 376.75 313.45 377.4C314.12 377.79 314.84 378.11 315.58 378.33C315.99 378.45 316.41 378.53 316.82 378.61C316.84 378.61 317.07 378.65 317.07 378.65C317.06 378.68 316.76 378.55 317 378.65C316.99 378.65 316.78 378.53 316.91 378.61C317.01 378.67 316.78 378.51 316.77 378.46C317.54 377.91 318.3 377.37 319.07 376.82C317.65 376.65 315.5 376.47 314.78 378.05C314.55 378.56 314.56 379.11 314.57 379.66C314.58 380.31 314.64 380.95 314.73 381.59C314.78 381.91 315.17 382.15 315.44 382.24C315.83 382.37 316.34 382.36 316.73 382.24C317.43 382.03 318.25 381.52 318.13 380.68C318.03 380.02 317.99 379.36 318.01 378.69C318.01 378.56 318.04 378.43 318.04 378.3C318.18 377.67 317.66 377.94 316.51 379.08C316.6 379.08 316.68 379.09 316.77 379.09C317.14 379.11 317.51 379.14 317.88 379.19C318.72 379.29 320.46 378.69 320.18 377.55C320.02 376.9 319.4 376.54 318.78 376.39C318.58 376.34 318.38 376.31 318.18 376.27C318.16 376.27 317.71 376.17 318 376.24C317.72 376.17 317.43 376.09 317.16 376C316.56 375.79 316.33 375.68 315.78 375.32C315.53 375.16 315.3 374.99 315.07 374.81C315.07 374.81 314.8 374.58 314.87 374.64C314.84 374.61 314.62 374.34 314.58 374.33C314.68 374.35 314.09 375.09 314.4 374.75C313.96 374.91 313.52 375.08 313.08 375.24C313.26 375.26 313.29 375.27 313.15 375.25C313.47 375.32 313.78 375.43 314.09 375.54C314.64 375.73 315.29 376.01 315.73 376.22C316.3 376.5 316.87 376.79 317.43 377.08C317.74 377.24 318.05 377.4 318.36 377.56C318.52 377.64 318.67 377.72 318.83 377.8C318.91 377.84 318.99 377.88 319.06 377.92C319.26 378.04 319.27 378.03 319.08 377.88C319.03 377.68 318.97 377.49 318.92 377.29C319 377.09 319.02 377.06 318.97 377.18C318.94 377.25 318.92 377.33 318.9 377.4C318.85 377.54 318.81 377.69 318.78 377.84C318.73 378.13 318.74 378.43 318.77 378.73C318.83 379.36 319.07 380 319.67 380.28C320.62 380.73 321.74 380.28 322.47 379.63C322.98 379.17 323.28 378.65 323.47 377.99C323.56 377.69 323.3 377.33 323.07 377.18C322.76 376.97 322.28 376.9 321.92 376.94C321.1 377.03 320.3 377.44 320.05 378.27Z" fill="#991915"/>
<path d="M368.19 318.13C377.58 322.3 387.5 325.04 397.69 326.31C398.11 325.58 398.52 324.85 398.94 324.12C391.63 323.27 384.31 322.41 377 321.56C376.19 321.47 373.62 322.61 375.04 323.55C379.63 326.58 384.41 329.31 389.35 331.73C390 331.07 390.65 330.4 391.31 329.74C383.02 328.78 376.18 323.06 368.64 319.97C367.68 319.58 364.84 320.9 366.3 321.9C374.69 327.63 382.46 334.18 389.53 341.47C390.5 340.94 391.46 340.4 392.43 339.87C383.67 335.19 375.83 329.02 369.23 321.59C368.5 320.77 365.53 321.4 365.97 322.75C367.32 326.96 370.94 329.54 374.15 332.29C377.74 335.36 380.85 339.05 382.42 343.56C383.43 343.11 384.44 342.66 385.45 342.21C379.22 337.4 373.71 331.72 369.05 325.39C368.35 324.45 365.45 325.24 365.79 326.55C367.78 334.41 375.34 339.7 376.4 347.87C377.17 347.35 377.95 346.84 378.72 346.32C378.1 346.31 377.67 345.03 377.47 344.59C377.06 343.69 376.66 342.79 376.26 341.89C375.45 340.09 374.65 338.28 373.84 336.48C372.23 332.87 370.61 329.27 369 325.66C368.43 324.39 365.26 325.15 365.6 326.57C367.2 333.18 368.81 339.8 370.41 346.41C371.5 346.02 372.59 345.64 373.67 345.25C369.83 339.29 367.54 332.47 366.91 325.41C366.8 324.14 363.49 324.85 363.5 326.04C363.6 333.77 363.66 341.99 359.74 348.91C360.84 348.8 361.94 348.68 363.04 348.57C362.15 339.74 363.82 330.75 367.82 322.82C368.19 322.09 367.49 321.68 366.84 321.61C365.99 321.53 365.12 321.92 364.61 322.59C361.52 326.72 360.93 331.93 359.92 336.84C359.02 341.23 357.46 346.12 353.31 348.44C354.24 348.5 355.17 348.56 356.1 348.62C355.17 346.35 355.48 344 355.95 341.67C356.39 339.48 356.99 337.32 357.72 335.21C359.22 330.88 361.37 326.79 363.99 323.03C362.89 323.14 361.79 323.26 360.69 323.37C361.16 324.34 360.11 325.27 359.42 325.86C359.27 326 359.11 326.12 358.93 326.23C359.19 326.27 359.17 326.21 358.85 326.07C358.63 325.85 358.44 325.57 358.55 325.29C358.66 325 359.84 324.58 360.12 324.43C360.68 324.12 361.25 323.81 361.81 323.5C362.94 322.88 364.06 322.26 365.19 321.64C365.71 321.35 366.54 320.77 366.05 320.09C365.61 319.48 364.32 319.65 363.77 319.95C361.45 321.22 359.13 322.48 356.82 323.77C355.27 324.64 354.34 326.3 355.95 327.68C357.49 329 359.82 328.42 361.33 327.35C362.67 326.41 364.96 324.3 364.08 322.47C363.48 321.22 361.39 321.93 360.78 322.81C358.04 326.75 355.87 331.03 354.3 335.56C353.52 337.8 352.9 340.11 352.45 342.44C352 344.8 351.77 347.26 352.7 349.53C353.14 350.61 354.75 350.12 355.49 349.71C365.35 344.19 361.83 330.83 367.82 322.82C366.75 322.75 365.68 322.67 364.62 322.6C360.43 330.92 358.71 340.22 359.65 349.48C359.79 350.86 362.55 349.84 362.95 349.14C367 342.01 367.03 333.67 366.93 325.7C365.79 325.91 364.66 326.12 363.52 326.33C364.17 333.59 366.6 340.54 370.54 346.67C371.19 347.68 374.11 346.79 373.8 345.51C372.2 338.9 370.59 332.28 368.99 325.67C367.86 325.97 366.73 326.28 365.59 326.58C367.47 330.79 369.36 334.99 371.24 339.2C372.18 341.3 373.12 343.41 374.07 345.51C374.76 347.05 375.57 348.49 377.46 348.51C378.31 348.52 379.93 348.11 379.78 346.96C378.71 338.76 371.15 333.49 369.17 325.64C368.08 326.03 366.99 326.41 365.91 326.8C370.7 333.31 376.39 339.07 382.78 344.01C383.52 344.58 386.24 343.88 385.81 342.66C384.26 338.23 381.35 334.47 377.85 331.39C374.68 328.6 370.71 326.08 369.35 321.85C368.26 322.24 367.17 322.62 366.09 323.01C372.81 330.57 380.84 336.91 389.76 341.67C390.56 342.1 393.78 341.23 392.66 340.07C385.45 332.64 377.51 325.95 368.96 320.11C368.18 320.75 367.4 321.39 366.62 322.04C374.52 325.28 381.35 330.93 390.07 331.94C390.73 332.02 391.63 331.73 392.09 331.23C392.43 330.86 392.59 330.22 392.03 329.95C387.09 327.53 382.31 324.8 377.72 321.77C377.07 322.43 376.42 323.1 375.76 323.76C383.07 324.61 390.39 325.47 397.7 326.32C399.18 326.49 401.24 324.42 398.95 324.13C389.27 322.93 379.78 320.3 370.86 316.35C370.09 316.01 369.13 316.13 368.44 316.61C367.98 316.91 367.4 317.78 368.19 318.13Z" fill="#991915"/>
<path d="M276.87 315.8C280.32 318.09 280.62 323.23 280.92 326.97C281.13 329.49 281.15 332.03 281.01 334.56C280.94 335.84 280.83 337.12 280.67 338.39C280.59 339.02 280.55 339.68 280.4 340.29C280.38 340.48 280.33 340.65 280.25 340.82C279.94 341.31 280.28 341.25 281.26 340.63C281.63 340.9 282 341.16 282.38 341.43C281.69 332.78 280.09 324.24 277.61 315.92C277 316.49 276.38 317.07 275.77 317.64C275.35 317.45 275.27 317.5 275.53 317.8C275.6 317.97 275.59 318.14 275.51 318.31C275.41 318.8 275.06 319.22 274.8 319.63C274.36 320.31 273.96 321.01 273.67 321.77C272.98 323.55 272.79 325.37 272.94 327.26C273.09 329.13 273.56 331 273.43 332.88C273.34 334.19 272.98 335.98 271.74 336.71C272.56 336.9 273.38 337.09 274.2 337.28C273.04 329.98 273.24 322.57 274.73 315.34C273.58 315.42 272.43 315.5 271.29 315.59C270.7 318.79 269.97 321.96 269.07 325.09C268.63 326.63 268.15 328.15 267.63 329.66C267.52 329.99 267.41 330.33 267.28 330.66C267.2 330.86 266.98 331.22 267.03 331.21C266.55 331.36 265.57 330.93 265.05 330.91C262.63 330.81 260.44 332.42 259.68 334.7C258.78 337.42 260.17 340.05 261.48 342.38C262.17 343.6 265.14 342.61 264.73 341.17C263.9 338.26 262.82 335.31 262.24 332.35C261.93 330.77 263 330 264.12 329.09C265.17 328.24 266.28 327.47 267.39 326.7C271.3 323.95 275.8 320.22 275.53 314.93C275.45 313.32 273.16 313.64 272.38 314.54C270.2 317.05 267.92 319.74 264.96 321.37C263.38 322.24 261.8 322.54 260.04 322.8C258.31 323.06 256.56 323.49 255.2 324.66C254.13 325.58 252.98 327.16 254.17 328.38C255.23 329.45 256.77 329.83 258.24 329.77C261.88 329.63 264.17 326.88 265.95 324.02C268.31 320.23 270.89 316.65 273.84 313.29C274.48 312.56 273.95 311.55 273 311.52C265.49 311.31 258.23 313.33 251.93 317.42C250.2 318.54 252.47 319.99 253.82 319.24C258.1 316.86 262.76 315.17 267.61 314.43C269.8 314.1 272.03 314.17 274.2 313.83C275.97 313.56 278.08 312.79 278.63 310.9C278.87 310.08 278.4 309.6 277.59 309.44C272.17 308.4 266.71 307.56 261.22 306.93C261.28 307.69 261.34 308.45 261.39 309.21C264.49 307.9 267.9 307.79 271.22 307.74C274.65 307.69 278.06 307.67 281.44 307.01C281.23 306.22 281.02 305.43 280.8 304.64C277.26 305.74 273.94 307.29 270.82 309.29C270.18 309.7 270.02 310.59 270.65 311.07C271.36 311.62 272.42 311.3 273.09 310.87C275.69 309.21 278.5 307.91 281.44 307C282.12 306.79 283.03 306.2 282.82 305.36C282.61 304.5 281.47 304.5 280.8 304.63C273.81 306 266.62 304.3 259.87 307.15C258.66 307.66 258.61 309.26 260.04 309.43C265.53 310.06 270.99 310.9 276.41 311.94C276.06 311.45 275.71 310.97 275.37 310.48C274.98 311.81 272.69 311.43 271.6 311.5C269.32 311.64 267.05 311.97 264.82 312.45C260.44 313.39 256.2 315.01 252.28 317.19C252.91 317.8 253.54 318.4 254.17 319.01C259.38 315.63 265.6 313.85 271.82 314.03C271.54 313.44 271.26 312.85 270.98 312.26C268.19 315.43 265.68 318.81 263.44 322.39C262.5 323.89 261.6 325.72 260.09 326.73C259.59 327.07 259.03 327.27 258.41 327.24C258.1 327.22 257.8 327.16 257.52 327.01C257.34 326.91 257.19 326.79 257.04 326.65C257.12 326.76 257.17 326.74 257.2 326.59C257.74 325.1 260.79 325.22 262 325C263.82 324.67 265.54 323.98 267.13 323.03C270.31 321.13 272.82 318.35 275.22 315.58C274.17 315.45 273.12 315.32 272.07 315.19C272.37 320.95 266.63 323.88 262.68 326.86C260.73 328.33 258.35 330.07 258.74 332.8C258.96 334.32 259.54 335.83 259.96 337.31C260.41 338.9 260.87 340.5 261.32 342.09C262.4 341.69 263.49 341.28 264.57 340.88C263.49 338.96 261.76 335.89 263.57 333.86C264.28 333.06 265.3 333.7 266.23 333.76C267.57 333.85 268.97 333.4 269.82 332.32C270.62 331.32 270.92 329.92 271.31 328.73C271.76 327.35 272.18 325.96 272.58 324.56C273.44 321.53 274.14 318.45 274.72 315.35C275.04 313.63 271.59 314.07 271.28 315.6C269.74 323.05 269.6 330.7 270.8 338.21C270.96 339.21 272.65 339.13 273.26 338.78C275.15 337.67 276.28 336 276.72 333.86C277.23 331.38 276.5 328.9 276.35 326.43C276.18 323.73 277.1 321.77 278.43 319.51C279.65 317.43 278.69 315.01 276.08 315.14C275.32 315.18 273.94 315.87 274.24 316.86C276.72 325.18 278.32 333.72 279.01 342.37C279.05 342.84 279.73 343.14 280.13 343.17C283.26 343.4 283.84 340.65 284.14 338.17C284.54 334.91 284.66 331.62 284.49 328.34C284.25 323.49 284.01 316.85 279.5 313.85C278.21 312.98 275.25 314.73 276.87 315.8Z" fill="#991915"/>
<path d="M127.283 235.585C126.873 235.655 126.493 235.815 126.113 235.975C125.333 236.305 124.553 236.645 123.763 236.975C123.383 237.135 123.003 237.305 122.713 237.595L122.883 237.585C124.343 241.175 126.083 244.735 128.743 247.535C131.413 250.345 135.163 252.335 139.033 252.105C142.043 251.935 144.803 250.475 147.463 249.055C153.803 245.655 160.163 242.245 166.013 238.045C167.653 236.865 169.283 235.595 170.373 233.895C172.213 231.035 172.273 227.315 171.313 224.045C170.353 220.785 168.493 217.865 166.663 215.005L166.703 214.655C165.913 214.645 165.303 215.295 164.663 215.755C164.123 216.145 163.513 216.415 162.903 216.685C161.803 217.175 160.713 217.665 159.613 218.145L159.833 218.565C161.463 221.005 162.643 223.735 163.333 226.585C163.553 227.505 163.713 228.475 163.453 229.375C163.173 230.325 162.463 231.075 161.763 231.765C155.553 237.805 147.643 242.095 139.193 243.985C138.573 244.125 137.923 244.255 137.313 244.095C136.623 243.925 136.073 243.445 135.543 242.965C132.963 240.655 130.383 238.355 127.813 236.045" fill="#991915"/>
<path d="M47.0434 106.905C63.8134 162.865 63.9034 225.875 42.9134 280.395C42.4834 281.515 41.9134 282.875 40.9334 283.575C39.4334 284.645 34.6034 284.545 32.6734 283.685C24.6834 280.115 20.3234 273.835 16.6934 265.785C13.0634 257.735 11.7434 248.855 10.4734 240.105C4.58336 199.435 -0.686645 156.195 17.9934 119.055C20.1634 114.735 23.3934 111.005 27.4334 108.345C33.2534 104.515 38.3234 101.565 47.0434 106.905Z" fill="#E4B9D8"/>
<path d="M227.963 168.955C166.913 148.725 106.353 128.005 45.6334 106.815C64.4934 163.955 62.1734 227.735 39.7534 283.575C82.5434 263.685 119.743 240.425 161.993 217.435C185.523 204.635 209.023 193.535 227.523 171.565" fill="#991915"/>
<path d="M102.093 158.975V170.325H93.9233L94.6733 158.975H102.093Z" fill="#E4B9D8"/>
<path d="M93.0933 170.325H84.9233V158.975H92.3933L93.0933 170.325Z" fill="#E4B9D8"/>
<path d="M116.143 164.115V170.325H110.713V164.695C110.713 164.055 110.593 163.815 110.183 163.815H110.123C109.713 163.815 109.593 164.055 109.593 164.695V170.325H104.163V164.115C104.163 159.905 105.153 158.685 109.013 158.685H111.293C115.143 158.685 116.143 159.905 116.143 164.115Z" fill="#E4B9D8"/>
<path d="M130.183 164.405V170.325H124.753V164.995C124.753 164.355 124.633 164.125 124.223 164.125H123.643V170.335H118.213V158.985H125.343C129.193 158.975 130.183 160.195 130.183 164.405Z" fill="#E4B9D8"/>
<path d="M143.623 164.115V170.325H138.193V164.695C138.193 164.055 138.073 163.815 137.663 163.815H137.603C137.193 163.815 137.073 164.055 137.073 164.695V170.325H131.643V164.115C131.643 159.905 132.633 158.685 136.493 158.685H138.773C142.633 158.685 143.623 159.905 143.623 164.115Z" fill="#E4B9D8"/>
<path d="M95.0833 212.315H91.3433L90.2933 196.425C90.0633 193.155 89.7633 189.125 89.5333 185.155C89.5933 189.245 89.6533 192.985 89.6533 196.425V212.315H84.9233V171.425H92.4033L93.1633 183.745C93.2833 185.965 93.3933 188.415 93.5133 190.635C93.6333 188.415 93.6933 185.965 93.8633 183.745L94.6833 171.425H102.103V212.315H96.7833V196.425C96.7833 192.975 96.8433 189.245 96.9033 185.155C96.6733 189.125 96.3733 193.155 96.1433 196.425L95.0833 212.315Z" fill="#E4B9D8"/>
<path d="M104.163 176.565C104.163 172.355 105.153 171.135 109.013 171.135H111.293C115.153 171.135 116.143 172.365 116.143 176.565V207.175C116.143 211.385 115.153 212.605 111.293 212.605H109.013C105.153 212.605 104.163 211.375 104.163 207.175V176.565ZM110.703 177.155C110.703 176.515 110.583 176.275 110.173 176.275H110.113C109.703 176.275 109.583 176.505 109.583 177.155V206.595C109.583 207.235 109.703 207.475 110.113 207.475H110.173C110.583 207.475 110.703 207.245 110.703 206.595V177.155Z" fill="#E4B9D8"/>
<path d="M131.643 176.565C131.643 172.355 132.633 171.135 136.493 171.135H138.773C142.633 171.135 143.623 172.365 143.623 176.565V207.175C143.623 211.385 142.633 212.605 138.773 212.605H136.493C132.633 212.605 131.643 211.375 131.643 207.175V176.565ZM138.193 177.155C138.193 176.515 138.073 176.275 137.663 176.275H137.603C137.193 176.275 137.073 176.505 137.073 177.155V206.595C137.073 207.235 137.193 207.475 137.603 207.475H137.663C138.073 207.475 138.193 207.245 138.193 206.595V177.155Z" fill="#E4B9D8"/>
<path d="M124.703 212.235H130.073V208.345L130.103 196.925C130.103 193.655 129.523 192.195 127.533 191.665C129.523 191.135 130.103 189.675 130.103 186.465V176.765C130.103 172.555 129.113 171.335 125.253 171.335L118.073 171.395L118.123 212.225H123.553V194.245H123.963C124.433 194.245 124.663 194.595 124.663 195.295L124.693 212.205L124.703 212.235ZM124.673 188.225C124.673 188.865 124.553 189.105 124.143 189.105H123.563V176.485H124.143C124.553 176.485 124.673 176.715 124.673 177.365V188.225Z" fill="#E4B9D8"/>
</g>
<path d="M217.247 714.307C217.126 715.426 217.505 716.455 217.778 717.499C218.416 721.584 218.931 725.698 219.72 729.768C220.084 731.674 219.553 732.249 217.703 732.385C215.412 732.551 213.136 732.99 210.876 733.368C209.449 733.61 208.858 733.232 208.645 731.674C207.993 726.984 207.128 722.325 206.294 717.363C204.564 718.573 203.593 720.252 202.395 721.689C201.105 723.248 199.876 724.881 198.617 726.485C195.34 730.66 191.289 733.55 185.949 734.563C183.81 734.972 181.625 735.411 179.653 736.469C179.061 737.725 177.757 737.907 176.664 738.406C173.038 739.192 169.412 739.782 165.787 738.481C164.846 738.012 164.103 737.317 163.496 736.469C161.432 733.565 161.523 730.509 163.647 727.846C167.273 723.308 171.764 719.738 177.241 717.559C178.667 716.501 180.078 715.426 181.504 714.367L190.03 702.129C195.477 701.569 200.696 699.739 206.157 699.209C208.994 698.937 211.801 698.997 214.623 699.028C215.488 704.141 216.368 709.224 217.247 714.307Z" fill="#FAB7FF"/>
<path d="M339.247 714.307C339.126 715.426 339.505 716.455 339.778 717.499C340.416 721.584 340.931 725.698 341.72 729.768C342.084 731.674 341.553 732.249 339.703 732.385C337.412 732.551 335.136 732.99 332.876 733.368C331.449 733.61 330.858 733.232 330.645 731.674C329.993 726.984 329.128 722.325 328.294 717.363C326.564 718.573 325.593 720.252 324.395 721.689C323.105 723.248 321.876 724.881 320.617 726.485C317.34 730.66 313.289 733.55 307.949 734.563C305.81 734.972 303.625 735.411 301.653 736.469C301.061 737.725 299.757 737.907 298.664 738.406C295.038 739.192 291.412 739.782 287.787 738.481C286.846 738.012 286.103 737.317 285.496 736.469C283.432 733.565 283.523 730.509 285.647 727.846C289.273 723.308 293.764 719.738 299.241 717.559C300.667 716.501 302.078 715.426 303.504 714.367L312.03 702.129C317.477 701.569 322.696 699.739 328.157 699.209C330.994 698.937 333.801 698.997 336.623 699.028C337.488 704.141 338.368 709.224 339.247 714.307Z" fill="#FAB7FF"/>
<defs>
<clipPath id="clip0">
<rect width="471.89" height="707.97" fill="white"/>
</clipPath>
</defs>
</svg>
