<?xml version="1.0" encoding="UTF-8" standalone="no"?>
<svg
   xmlns:dc="http://purl.org/dc/elements/1.1/"
   xmlns:cc="http://creativecommons.org/ns#"
   xmlns:rdf="http://www.w3.org/1999/02/22-rdf-syntax-ns#"
   xmlns:svg="http://www.w3.org/2000/svg"
   xmlns="http://www.w3.org/2000/svg"
   xmlns:sodipodi="http://sodipodi.sourceforge.net/DTD/sodipodi-0.dtd"
   xmlns:inkscape="http://www.inkscape.org/namespaces/inkscape"
   width="472"
   height="740"
   viewBox="0 0 472 740"
   fill="none"
   version="1.1"
   id="svg69"
   sodipodi:docname="moro-logo-round.svg"
   inkscape:version="0.92.5 (2060ec1f9f, 2020-04-08)">
  <metadata
     id="metadata73">
    <rdf:RDF>
      <cc:Work
         rdf:about="">
        <dc:format>image/svg+xml</dc:format>
        <dc:type
           rdf:resource="http://purl.org/dc/dcmitype/StillImage" />
        <dc:title />
      </cc:Work>
    </rdf:RDF>
  </metadata>
  <sodipodi:namedview
     pagecolor="#ffffff"
     bordercolor="#666666"
     borderopacity="1"
     objecttolerance="10"
     gridtolerance="10"
     guidetolerance="10"
     inkscape:pageopacity="0"
     inkscape:pageshadow="2"
     inkscape:window-width="758"
     inkscape:window-height="396"
     id="namedview71"
     showgrid="false"
     inkscape:zoom="3.6081557"
     inkscape:cx="289.07754"
     inkscape:cy="282.53308"
     inkscape:window-x="2255"
     inkscape:window-y="243"
     inkscape:window-maximized="0"
     inkscape:current-layer="g58" />
  <g
     clip-path="url(#clip0)"
     id="g58"
     transform="matrix(1,0,0,0.94402955,0,27.425523)">
    <rect
       style="fill:#d3caee;fill-opacity:1;stroke-width:0.93276674"
       id="rect900"
       width="80"
       height="84.743111"
       x="250"
       y="405.2569"
       ry="40"
       inkscape:export-xdpi="90.349998"
       inkscape:export-ydpi="90.349998" />
    <path
       d="m 277.55004,421.43108 v 11.14886 h -8.35067 l 0.76661,-11.14886 z"
       id="path40"
       inkscape:connector-curvature="0"
       style="fill:#000000;stroke-width:1.00201666"
       inkscape:export-xdpi="90.349998"
       inkscape:export-ydpi="90.349998" />
    <path
       d="M 268.35098,432.57994 H 260 v -11.14886 h 7.63547 z"
       id="path42"
       inkscape:connector-curvature="0"
       style="fill:#000000;stroke-width:1.00201666"
       inkscape:export-xdpi="90.349998"
       inkscape:export-ydpi="90.349998" />
    <path
       d="m 291.91127,426.47999 v 6.09995 h -5.55028 v -5.53023 c 0,-0.62866 -0.12266,-0.86441 -0.54174,-0.86441 h -0.0613 c -0.41909,0 -0.54174,0.23575 -0.54174,0.86441 v 5.53023 h -5.55029 v -6.09995 c 0,-4.13539 1.01193,-5.33377 4.95744,-5.33377 h 2.3305 c 3.93529,0 4.95744,1.19838 4.95744,5.33377 z"
       id="path44"
       inkscape:connector-curvature="0"
       style="fill:#000000;stroke-width:1.00201666"
       inkscape:export-xdpi="90.349998"
       inkscape:export-ydpi="90.349998" />
    <path
       d="m 306.26228,426.76485 v 5.81509 H 300.712 v -5.23555 c 0,-0.62866 -0.12266,-0.85458 -0.54174,-0.85458 h -0.59285 v 6.09995 h -5.55029 V 421.4409 h 7.28795 c 3.93528,-0.01 4.94721,1.18856 4.94721,5.32395 z"
       id="path46"
       inkscape:connector-curvature="0"
       style="fill:#000000;stroke-width:1.00201666"
       inkscape:export-xdpi="90.349998"
       inkscape:export-ydpi="90.349998" />
    <path
       d="m 320,426.47999 v 6.09995 h -5.55028 v -5.53023 c 0,-0.62866 -0.12266,-0.86441 -0.54174,-0.86441 h -0.0613 c -0.41909,0 -0.54174,0.23575 -0.54174,0.86441 v 5.53023 h -5.55029 v -6.09995 c 0,-4.13539 1.01193,-5.33377 4.95744,-5.33377 h 2.3305 c 3.94551,0 4.95744,1.19838 4.95744,5.33377 z"
       id="path48"
       inkscape:connector-curvature="0"
       style="fill:#000000;stroke-width:1.00201666"
       inkscape:export-xdpi="90.349998"
       inkscape:export-ydpi="90.349998" />
    <path
       d="m 270.38506,473.8258 h -3.82285 l -1.07326,-15.6084 c -0.23509,-3.21205 -0.54174,-7.17063 -0.77683,-11.07028 0.0613,4.01752 0.12266,7.69124 0.12266,11.07028 v 15.6084 H 260 v -40.16536 h 7.64569 l 0.77684,12.10167 c 0.12266,2.18066 0.2351,4.58724 0.35775,6.7679 0.12266,-2.18066 0.18399,-4.58724 0.35776,-6.7679 l 0.83816,-12.10167 h 7.58406 v 40.16536 h -5.43754 v -15.6084 c 0,-3.38886 0.0613,-7.05276 0.12266,-11.07028 -0.2351,3.89965 -0.54174,7.85823 -0.77684,11.07028 z"
       id="path50"
       inkscape:connector-curvature="0"
       style="fill:#000000;stroke-width:1.00201666"
       inkscape:export-xdpi="90.349998"
       inkscape:export-ydpi="90.349998" />
    <path
       d="m 279.66589,438.70935 c 0,-4.13539 1.01193,-5.33377 4.95744,-5.33377 h 2.3305 c 3.94551,0 4.95744,1.2082 4.95744,5.33377 v 30.06754 c 0,4.13539 -1.01193,5.33377 -4.95744,5.33377 h -2.3305 c -3.94551,0 -4.95744,-1.2082 -4.95744,-5.33377 z m 6.68487,0.57955 c 0,-0.62866 -0.12265,-0.86441 -0.54174,-0.86441 h -0.0613 c -0.41909,0 -0.54174,0.22592 -0.54174,0.86441 v 28.91827 c 0,0.62866 0.12265,0.8644 0.54174,0.8644 h 0.0613 c 0.41909,0 0.54174,-0.22592 0.54174,-0.8644 z"
       id="path52"
       inkscape:connector-curvature="0"
       style="fill:#000000;stroke-width:1.00201666"
       inkscape:export-xdpi="90.349998"
       inkscape:export-ydpi="90.349998" />
    <path
       d="m 307.75462,438.70935 c 0,-4.13539 1.01193,-5.33377 4.95744,-5.33377 h 2.3305 c 3.94551,0 4.95744,1.2082 4.95744,5.33377 v 30.06754 c 0,4.13539 -1.01193,5.33377 -4.95744,5.33377 h -2.3305 c -3.94551,0 -4.95744,-1.2082 -4.95744,-5.33377 z m 6.6951,0.57955 c 0,-0.62866 -0.12266,-0.86441 -0.54174,-0.86441 h -0.0613 c -0.41909,0 -0.54174,0.22592 -0.54174,0.86441 v 28.91827 c 0,0.62866 0.12265,0.8644 0.54174,0.8644 h 0.0613 c 0.41908,0 0.54174,-0.22592 0.54174,-0.8644 z"
       id="path54"
       inkscape:connector-curvature="0"
       style="fill:#000000;stroke-width:1.00201666"
       inkscape:export-xdpi="90.349998"
       inkscape:export-ydpi="90.349998" />
    <path
       d="m 300.66089,473.74722 h 5.48895 v -3.82107 l 0.0307,-11.21761 c 0,-3.21205 -0.59285,-4.64618 -2.62693,-5.16679 2.03408,-0.5206 2.62693,-1.95473 2.62693,-5.10784 v -9.5281 c 0,-4.13539 -1.01193,-5.33377 -4.95744,-5.33377 l -7.33905,0.0589 0.0511,40.10642 h 5.55028 V 456.076 h 0.41909 c 0.48041,0 0.7155,0.3438 0.7155,1.03139 l 0.0307,16.61033 z m -0.0307,-23.5845 c 0,0.62865 -0.12265,0.8644 -0.54174,0.8644 h -0.59284 v -12.39635 h 0.59284 c 0.41909,0 0.54174,0.22592 0.54174,0.8644 z"
       id="path56"
       inkscape:connector-curvature="0"
       style="fill:#000000;stroke-width:1.00201666"
       inkscape:export-xdpi="90.349998"
       inkscape:export-ydpi="90.349998" />
  </g>
  <defs
     id="defs67">
    <clipPath
       id="clip0">
      <rect
         width="471.89"
         height="707.97"
         fill="white"
         id="rect64" />
    </clipPath>
  </defs>
</svg>
